
<svg version="1.0" xmlns="http://www.w3.org/2000/svg"
 width="4500.000000pt" height="4500.000000pt" viewBox="0 0 4500.000000 4500.000000"
 preserveAspectRatio="xMidYMid meet">
<metadata>
Created by potrace 1.16, written by Peter Selinger 2001-2019
</metadata>
<g transform="translate(0.000000,4500.000000) scale(0.100000,-0.100000)"
fill="#000000" stroke="none">
<path d="M0 22500 l0 -22500 22500 0 22500 0 0 22500 0 22500 -22500 0 -22500
0 0 -22500z m21790 16762 c238 -20 536 -52 690 -73 2066 -286 3997 -1167 5575
-2544 210 -184 727 -699 898 -896 631 -726 1101 -1440 1504 -2283 632 -1326
952 -2702 980 -4206 24 -1362 -216 -2703 -712 -3960 -40 -102 -84 -211 -98
-243 l-26 -58 55 -24 c169 -75 640 -353 965 -570 1339 -895 2450 -2100 3239
-3515 1085 -1946 1496 -4209 1169 -6440 -236 -1610 -871 -3165 -1830 -4480
-334 -459 -626 -799 -1043 -1215 -452 -451 -816 -759 -1331 -1127 -674 -481
-1540 -939 -2309 -1220 -61 -22 -235 -89 -386 -148 -339 -133 -442 -168 -668
-225 -613 -154 -1177 -242 -1862 -291 -202 -14 -806 -17 -5835 -21 -5716 -5
-5985 -4 -6290 32 -792 92 -1476 347 -2143 798 -728 491 -1416 1136 -1965
1840 -369 475 -679 1040 -884 1617 -182 512 -297 1085 -333 1665 -6 104 -10
2680 -10 7319 l0 7159 6334 -8 6334 -7 168 57 c471 159 859 400 1209 750 360
359 615 775 769 1255 52 161 120 496 137 675 25 261 -1 682 -58 925 -16 66
-18 71 -21 40 -3 -27 -10 -8 -28 80 -103 496 -290 915 -557 1245 -88 109 -271
284 -392 376 -439 330 -1013 537 -1745 628 -566 71 -1165 79 -2990 40 -1872
-39 -3000 46 -4066 306 -1100 269 -1977 705 -2734 1359 -156 135 -476 452
-613 609 -596 681 -1038 1470 -1370 2442 -134 395 -214 675 -416 1472 -77 302
-159 611 -182 688 -23 77 -44 150 -46 162 l-5 23 4033 3 c6916 4 8727 2 8889
-11z"/>
<path d="M16440 15955 l0 -2935 4628 -5 c2545 -3 4740 -6 4877 -7 261 -2 348
6 580 54 553 113 1088 403 1493 808 655 656 964 1546 856 2470 -138 1179 -982
2174 -2130 2510 l-137 40 -5084 0 -5083 0 0 -2935z"/>
</g>
</svg>
